# xmcd
#
# Track frame offsets:
#	150
#	22637
#	33437
#	53287
#	73505
#	94332
#	101862
#	120357
#	139700
#	160262
#	173555
#
# Disc length: 2523 seconds
#
# Revision: 11
# Processed by: cddbd v1.5.2PL0 Copyright (c) Steve Scherf et al.
# Submitted via: audiograbber 1.83.01
#
DISCID=7e09d90b
DTITLE=BAP - Vun drinne noh drusse
DYEAR=1982
DGENRE=Rock
TTITLE0=Kristallnaach
TTITLE1=Wellenreiter
TTITLE2=Zehnter Juni
TTITLE3=Wie 'ne Stein
TTITLE4=Do kanns zaubere
TTITLE5=Nit für Kooche (Teil 1)
TTITLE6=Nit für Kooche (Teil 2)
TTITLE7=Ahn 'ner Leitplank
TTITLE8=Wenn et Bedde sich lohne däät
TTITLE9=Eins für Carmen un en Insel
TTITLE10=Koot vüür Aach
EXTD=
EXTT0=
EXTT1=
EXTT2=
EXTT3=
EXTT4=
EXTT5=
EXTT6=
EXTT7=
EXTT8=
EXTT9=
EXTT10=
PLAYORDER=
